<?xml version="1.0" encoding="UTF-8" standalone="no"?>
<svg
   width="63.416901"
   height="79.461601"
   viewBox="0 0 63.416901 79.461601"
   fill="none"
   version="1.1"
   id="svg1"
   sodipodi:docname="arbeitskraftsabsicherung.svg"
   inkscape:version="1.4.2 (2aeb623e1d, 2025-05-12)"
   inkscape:export-filename="../53e88dfa/arbeitskraftsabsicherung.png"
   inkscape:export-xdpi="96"
   inkscape:export-ydpi="96"
   xmlns:inkscape="http://www.inkscape.org/namespaces/inkscape"
   xmlns:sodipodi="http://sodipodi.sourceforge.net/DTD/sodipodi-0.dtd"
   xmlns="http://www.w3.org/2000/svg"
   xmlns:svg="http://www.w3.org/2000/svg">
  <defs
     id="defs1" />
  <sodipodi:namedview
     id="namedview1"
     pagecolor="#ffffff"
     bordercolor="#000000"
     borderopacity="0.25"
     inkscape:showpageshadow="2"
     inkscape:pageopacity="0.0"
     inkscape:pagecheckerboard="0"
     inkscape:deskcolor="#d1d1d1"
     inkscape:zoom="9.9583333"
     inkscape:cx="31.682008"
     inkscape:cy="39.715481"
     inkscape:window-width="2560"
     inkscape:window-height="1403"
     inkscape:window-x="0"
     inkscape:window-y="0"
     inkscape:window-maximized="1"
     inkscape:current-layer="svg1" />
  <path
     d="m 25.6434,15.0048 c -1.2577,1.5299 -1.8947,3.8003 -1.8947,6.7512 0,2.9508 0.637,5.2484 1.8947,6.7728 1.3066,1.5898 3.2775,2.3956 5.8582,2.3956 2.5807,0 4.5788,-0.8058 5.8854,-2.3956 1.2577,-1.5298 1.8947,-3.8056 1.8947,-6.7728 0,-2.9673 -0.637,-5.2213 -1.8947,-6.7457 -1.3066,-1.5898 -3.2884,-2.401 -5.8854,-2.401 -2.597,0 -4.5461,0.8058 -5.8582,2.3955 z m 10.0559,1.3829 c 0.9255,1.127 1.3992,2.9346 1.3992,5.3628 0,2.4282 -0.4682,4.263 -1.3992,5.3955 -0.8875,1.078 -2.2595,1.6006 -4.2031,1.6006 -1.9437,0 -3.2885,-0.5226 -4.1759,-1.6006 -0.9256,-1.127 -1.3993,-2.94 -1.3993,-5.3955 0,-2.4554 0.4683,-4.2358 1.3993,-5.3628 0.8874,-1.078 2.254,-1.6061 4.1759,-1.6061 1.9218,0 3.3156,0.5227 4.2031,1.6061 z M 24.2278,38.4214 c -4.5298,0 -9.5985,4.6713 -9.5985,10.9107 l -0.0817,8.5096 2.1778,0.0218 0.0816,-8.5205 c 0,-3.9581 3.3103,-8.7438 7.4208,-8.7438 h 3.7948 c 0.0327,0.8711 0.3648,1.666 0.9038,2.2812 l -0.6261,13.475 3.4409,2.7059 3.4898,-2.7004 -0.6261,-13.5186 c 0.5118,-0.6098 0.833,-1.3938 0.8657,-2.2431 h 3.3211 c 4.1106,0 7.4208,4.7802 7.4208,8.7438 v 8.5096 h 2.1778 V 49.343 c 0,-6.2503 -5.0688,-10.9216 -9.5986,-10.9216 H 24.2278 Z M 31.752,56.301 30.527,55.3373 31.0443,44.1109 c 0.2286,0.0435 0.4573,0.0653 0.6969,0.0653 0.2504,0 0.5008,-0.0272 0.735,-0.0762 l 0.5172,11.2264 -1.2522,0.9691 z M 31.7466,42.0038 c -0.8058,0 -1.4591,-0.6152 -1.5353,-1.4046 h 3.0761 c -0.0762,0.784 -0.735,1.4046 -1.5354,1.4046 z M 31.7139,0.0054 0,8.4443 v 38.9986 c 0,8.6838 5.4608,16.9703 15.7889,23.9555 7.6876,5.1995 15.2499,7.8346 15.5657,7.9435 l 0.3539,0.1197 0.3539,-0.1197 C 32.3782,79.233 39.9405,76.5979 47.628,71.3984 57.9562,64.4132 63.4169,56.1267 63.4169,47.4429 V 8.4388 L 31.703,0 Z m 29.5362,47.4429 c 0,18.1518 -26.1606,28.4581 -29.5362,29.7103 C 28.3384,75.9064 2.1778,65.5946 2.1778,47.4483 V 10.1103 L 31.7139,2.254 61.2501,10.1103 v 37.3326 z"
     fill="#808080"
     id="path1"
     style="fill:#ffa630;fill-opacity:1" />
</svg>
