<svg width="232" height="232" viewBox="0 0 232 232" fill="none" xmlns="http://www.w3.org/2000/svg">
<g clip-path="url(#clip0_1_6)">
<path fill-rule="evenodd" clip-rule="evenodd" d="M31.5934 18H200.014V185.993H31.5934V18Z" fill="#005BAA"/>
<path fill-rule="evenodd" clip-rule="evenodd" d="M36.521 22.9088H195.099V181.084H36.521V22.9088Z" fill="white"/>
<path fill-rule="evenodd" clip-rule="evenodd" d="M42.184 28.5548H189.43V175.428H42.184V28.5548Z" fill="#005BAA"/>
<path fill-rule="evenodd" clip-rule="evenodd" d="M55.2997 54.772H84.2871V64.2424H55.2997V54.772Z" fill="white"/>
<path fill-rule="evenodd" clip-rule="evenodd" d="M63.2615 84.7954V62.1422H76.3483V84.7954H63.2615Z" fill="white"/>
<path fill-rule="evenodd" clip-rule="evenodd" d="M93.0156 54.8574H105.867L117.596 84.7961L104.609 84.8054L93.0156 54.8574Z" fill="white"/>
<path fill-rule="evenodd" clip-rule="evenodd" d="M105.528 54.8574H92.6767L80.9503 84.7961L93.9348 84.8054L105.528 54.8574Z" fill="white"/>
<path fill-rule="evenodd" clip-rule="evenodd" d="M114.34 54.772H143.324V64.2424H114.34V54.772Z" fill="white"/>
<path fill-rule="evenodd" clip-rule="evenodd" d="M122.291 84.7954V62.1422H135.374V84.7954H122.291Z" fill="white"/>
<path fill-rule="evenodd" clip-rule="evenodd" d="M152.047 54.8574H164.898L176.627 84.7961L163.643 84.8054L152.047 54.8574Z" fill="white"/>
<path fill-rule="evenodd" clip-rule="evenodd" d="M164.564 54.8574H151.713L139.983 84.7961L152.968 84.8054L164.564 54.8574Z" fill="white"/>
<path fill-rule="evenodd" clip-rule="evenodd" d="M55.3356 148.877H58.1029V135.675H55.3356V148.877Z" fill="white"/>
<path fill-rule="evenodd" clip-rule="evenodd" d="M63.303 148.877H65.9433V141.343C65.9589 140.466 65.8978 139.589 65.7605 138.722C66.0499 139.542 66.438 140.323 66.9164 141.049L72.8043 148.877H75.5159V135.675H72.8787V143.06C72.8647 143.931 72.9249 144.802 73.0585 145.663C72.7713 144.848 72.383 144.073 71.9026 143.355L66.1912 135.675H63.3154V148.877H63.303Z" fill="white"/>
<path fill-rule="evenodd" clip-rule="evenodd" d="M79.8105 147.2C80.4985 148.493 81.924 149.233 83.9321 149.233C86.8234 149.233 88.5061 147.548 88.5061 145.168C88.5061 143.507 87.4555 142.251 85.2863 141.235C83.8422 140.569 82.6832 140.274 82.6832 139.066C82.6832 138.198 83.3898 137.553 84.5085 137.553C84.9084 137.53 85.3063 137.626 85.6514 137.83C85.9964 138.033 86.2728 138.335 86.4453 138.697L88.0722 137.107C87.2045 135.908 86.1013 135.372 84.5457 135.372C81.7566 135.372 79.9902 137.017 79.9902 139.091C79.9902 140.95 81.0934 141.898 82.9931 142.912C84.7626 143.841 85.8286 144.095 85.8286 145.257C85.8286 146.292 85.0694 146.993 83.7337 146.993C83.224 147.004 82.7228 146.86 82.2967 146.58C81.8706 146.3 81.5396 145.897 81.3476 145.425L79.7981 147.197L79.8105 147.2Z" fill="white"/>
<path fill-rule="evenodd" clip-rule="evenodd" d="M104.124 135.675H101.378V143.46C101.378 145.629 100.402 146.748 98.524 146.748C96.6461 146.748 95.7009 145.657 95.7009 143.46V135.675H92.9553V143.891C92.9553 147.473 94.7805 149.23 98.5581 149.23C102.336 149.23 104.136 147.455 104.136 143.891V135.675H104.124Z" fill="white"/>
<path fill-rule="evenodd" clip-rule="evenodd" d="M112.015 141.306V137.835H112.43C114.184 137.835 115.179 138.093 115.179 139.627C115.179 141.161 114.147 141.306 112.43 141.306H112.015ZM118.6 148.877L115.039 142.874C116.722 142.654 117.915 141.25 117.915 139.422C117.915 136.943 116.366 135.675 113.214 135.675H109.25V148.877H112.015V142.71L115.423 148.877H118.6Z" fill="white"/>
<path fill-rule="evenodd" clip-rule="evenodd" d="M120.912 148.877H123.881L124.786 146.069H129.791L130.841 148.877H133.983L128.994 135.675H125.83L120.912 148.877ZM129.127 143.854H125.561L126.958 139.645C127.118 139.043 127.245 138.433 127.339 137.817C127.428 138.414 127.549 139.006 127.702 139.589L129.127 143.854Z" fill="white"/>
<path fill-rule="evenodd" clip-rule="evenodd" d="M137.601 148.877H140.239V141.343C140.254 140.466 140.194 139.589 140.059 138.722C140.347 139.542 140.735 140.324 141.215 141.049L147.103 148.877H149.814V135.675H147.174V143.06C147.16 143.931 147.22 144.802 147.354 145.663C147.068 144.848 146.68 144.072 146.198 143.355L140.487 135.675H137.614V148.877H137.601Z" fill="white"/>
<path fill-rule="evenodd" clip-rule="evenodd" d="M165.346 139.123L165.436 136.297C164.208 135.681 162.852 135.363 161.478 135.367C157.177 135.367 154.376 138.395 154.376 142.293C154.376 146.263 157.248 149.238 161.426 149.238C162.794 149.252 164.139 148.886 165.312 148.181L165.33 145.284C164.295 146.286 162.904 146.837 161.463 146.815C158.785 146.815 157.214 145.027 157.214 142.293C157.214 139.467 158.968 137.645 161.732 137.645C163.084 137.645 164.382 138.176 165.346 139.123Z" fill="white"/>
<path fill-rule="evenodd" clip-rule="evenodd" d="M170.167 148.877H177.778V146.475H172.935V143.172H177.778V140.77H172.935V138.055H177.778V135.675H170.167V148.877Z" fill="white"/>
<path fill-rule="evenodd" clip-rule="evenodd" d="M94.4713 116.221H81.5116L79.2369 121.749C78.6729 123.106 78.3971 124.123 78.3971 124.802C78.4036 125.074 78.472 125.342 78.5971 125.585C78.7222 125.828 78.9007 126.039 79.1192 126.202C79.6088 126.608 80.6686 126.875 82.2708 126.999V127.966H71.7344V127.014C73.131 126.748 74.0349 126.409 74.446 125.998C75.2889 125.171 76.2186 123.493 77.235 120.962L89.011 92.1419H89.8694L101.524 121.272C102.454 123.618 103.313 125.133 104.078 125.83C104.843 126.528 105.916 126.921 107.279 127.014V127.966H94.0777V127.014C95.4072 126.943 96.3089 126.704 96.78 126.305C97.0027 126.136 97.1829 125.917 97.3061 125.667C97.4293 125.416 97.4922 125.14 97.4896 124.86C97.4896 124.101 97.1518 122.911 96.4949 121.272L94.4713 116.236V116.221ZM93.7802 114.305L88.103 100.153L82.277 114.305H93.7802Z" fill="white"/>
<path fill-rule="evenodd" clip-rule="evenodd" d="M123.463 126.998V127.965H109.115V127.014H110.302C111.684 127.014 112.687 126.59 113.311 125.743C113.707 125.195 113.909 123.862 113.909 121.764V99.1419C113.909 97.3693 113.797 96.1949 113.599 95.6308C113.393 95.1592 113.037 94.769 112.585 94.5214C111.896 94.1165 111.111 93.9026 110.311 93.9016H109.115V92.941H123.463V93.8769H122.251C120.887 93.8769 119.89 94.3014 119.267 95.1381C118.855 95.6959 118.647 97.0161 118.647 99.1171V121.739C118.647 123.512 118.755 124.686 118.957 125.25C119.166 125.727 119.531 126.118 119.992 126.36C120.672 126.766 121.449 126.98 122.242 126.98L123.463 126.998Z" fill="white"/>
<path fill-rule="evenodd" clip-rule="evenodd" d="M155.726 92.1183L156.584 103.172H155.726C154.85 100.422 153.721 98.3472 152.339 96.9465C150.349 94.9384 147.791 93.9333 144.663 93.9312C140.397 93.9312 137.154 95.6956 134.935 99.2242C133.076 102.203 132.146 105.751 132.146 109.866C132.107 113.01 132.735 116.127 133.99 119.011C135.23 121.773 136.848 123.792 138.846 125.069C140.667 126.302 142.809 126.974 145.007 127.003C146.217 127.004 147.422 126.837 148.586 126.507C149.755 126.172 150.875 125.686 151.917 125.06V114.923C151.917 113.166 151.79 112.02 151.536 111.474C151.291 110.94 150.873 110.503 150.349 110.235C149.816 109.945 148.875 109.802 147.526 109.804V108.825H160.486V109.804H159.866C158.577 109.804 157.697 110.253 157.22 111.155C156.891 111.79 156.73 113.052 156.73 114.92V125.643C154.967 126.653 153.086 127.444 151.13 127.998C149.123 128.522 147.054 128.775 144.979 128.751C138.515 128.751 133.602 126.582 130.24 122.243C127.736 119.026 126.405 115.051 126.466 110.975C126.466 107.895 127.194 104.858 128.589 102.112C130.266 98.7532 132.569 96.1707 135.496 94.3651C137.951 92.8652 140.851 92.1246 144.173 92.1246C145.29 92.113 146.406 92.2168 147.502 92.4344C148.95 92.7787 150.371 93.2335 151.75 93.7949C152.34 94.0646 152.967 94.2453 153.61 94.331C153.769 94.3279 153.926 94.2852 154.066 94.2068C154.205 94.1284 154.323 94.0167 154.409 93.8816C154.628 93.5821 154.762 92.9943 154.812 92.1183H155.726Z" fill="white"/>
<path fill-rule="evenodd" clip-rule="evenodd" d="M12 197.727L14.2219 214.712H18.7836L20.9218 201.455H21.1232L23.4319 214.712H27.8789L30.5037 197.727H26.7819L25.9452 209.193H25.7406L23.779 197.727H18.7557L16.9087 209.193H16.7073L16.1867 197.727H12Z" fill="#005BAA"/>
<path fill-rule="evenodd" clip-rule="evenodd" d="M34.0261 197.727V214.712H38.3274V197.727H34.0261Z" fill="#005BAA"/>
<path fill-rule="evenodd" clip-rule="evenodd" d="M41.5051 197.727V200.342H44.7094V214.712H49.1285V200.342H52.3328V197.727H41.5051Z" fill="#005BAA"/>
<path fill-rule="evenodd" clip-rule="evenodd" d="M55.4298 197.727V214.712H59.7033V207.067H62.6472V214.712H66.9176V197.727H62.6472V204.448H59.7033V197.727H55.4298Z" fill="#005BAA"/>
<path fill-rule="evenodd" clip-rule="evenodd" d="M79.8641 197.727L83.6169 207.869V214.712H87.8872V207.869L91.7547 197.727H87.9461L86.2138 204.873H86.0123L84.1933 197.727H79.8641Z" fill="#005BAA"/>
<path fill-rule="evenodd" clip-rule="evenodd" d="M101.709 202.704V209.733C101.709 211.527 101.536 212.351 100.178 212.351C98.821 212.351 98.6506 211.527 98.6506 209.733V202.704C98.6506 200.91 98.821 200.086 100.178 200.086C101.536 200.086 101.709 200.91 101.709 202.704ZM105.98 203.482C105.98 199.094 104.74 197.467 100.178 197.467C95.6167 197.467 94.3772 199.094 94.3772 203.482V208.955C94.3772 213.343 95.5888 214.998 100.178 214.998C104.768 214.998 105.98 213.343 105.98 208.955V203.482Z" fill="#005BAA"/>
<path fill-rule="evenodd" clip-rule="evenodd" d="M110.09 197.727V208.957C110.09 213.323 111.27 215 115.776 215C120.282 215 121.518 213.345 121.518 208.957V197.727H117.22V209.735C117.22 211.529 117.075 212.354 115.804 212.354C114.533 212.354 114.36 211.529 114.36 209.735V197.727H110.09Z" fill="#005BAA"/>
<path fill-rule="evenodd" clip-rule="evenodd" d="M138.549 197.727L134.678 214.715H138.462L139.181 211.151H142.791L143.34 214.715H147.496L144.062 197.727H138.549ZM141.146 200.655H141.261L142.385 208.539H139.733L141.146 200.661V200.655Z" fill="#005BAA"/>
<path fill-rule="evenodd" clip-rule="evenodd" d="M150.453 197.727V214.712H159.66V212.093H154.727V197.727H150.453Z" fill="#005BAA"/>
<path fill-rule="evenodd" clip-rule="evenodd" d="M160.416 197.727L162.638 214.712H167.199L169.334 201.455H169.539L171.848 214.712H176.292L178.919 197.727H175.195L174.358 209.193H174.156L172.195 197.727H167.171L165.324 209.193H165.123L164.602 197.727H160.416Z" fill="#005BAA"/>
<path fill-rule="evenodd" clip-rule="evenodd" d="M184.435 197.727L180.567 214.715H184.348L185.067 211.151H188.677L189.226 214.715H193.381L189.948 197.727H184.435ZM187.032 200.655H187.146L188.274 208.539H185.616L187.032 200.661V200.655Z" fill="#005BAA"/>
<path fill-rule="evenodd" clip-rule="evenodd" d="M194.311 197.727L198.064 207.869V214.712H202.337V207.869L206.205 197.727H202.393L200.661 204.873H200.459L198.64 197.727H194.311Z" fill="#005BAA"/>
<path fill-rule="evenodd" clip-rule="evenodd" d="M219.431 201.5C219.431 198.832 217.754 197.472 214.581 197.472C211.061 197.472 209.003 199.099 209.003 201.293V202.78C209.003 204.453 209.725 205.538 211.37 206.555L213.131 207.639C214.432 208.417 215.325 208.959 215.325 210.258V210.918C215.325 211.956 215.064 212.356 214.113 212.356C213.162 212.356 212.873 211.931 212.873 210.918V209.464H208.575V210.704C208.575 213.679 209.988 214.977 213.843 214.977C217.562 214.977 219.589 213.49 219.589 210.893V209.855C219.589 208.842 219.415 208.061 218.926 207.404C218.346 206.623 217.509 206.223 216.756 205.752L214.993 204.664C213.784 203.933 213.134 203.366 213.134 202.352V201.243C213.134 200.372 213.363 200.003 214.172 200.003C214.981 200.003 215.241 200.36 215.241 201.243V202.755H219.428V201.5H219.431Z" fill="#005BAA"/>
</g>
<defs>
<clipPath id="clip0_1_6">
<rect width="232" height="232" fill="white"/>
</clipPath>
</defs>
</svg>
